<?xml version="1.0" encoding="UTF-8" standalone="no"?>
<!-- Created with Inkscape (http://www.inkscape.org/) -->
<svg
   width="98.415169mm"
   height="21.683189mm"
   viewBox="0 0 98.415169 21.683189"
   version="1.1"
   id="svg1632"
   inkscape:version="1.2.1 (9c6d41e410, 2022-07-14)"
   sodipodi:docname="logo.svg"
   xmlns:inkscape="http://www.inkscape.org/namespaces/inkscape"
   xmlns:sodipodi="http://sodipodi.sourceforge.net/DTD/sodipodi-0.dtd"
   xmlns:xlink="http://www.w3.org/1999/xlink"
   xmlns="http://www.w3.org/2000/svg"
   xmlns:svg="http://www.w3.org/2000/svg">
  <sodipodi:namedview
     id="namedview1634"
     pagecolor="#505050"
     bordercolor="#eeeeee"
     borderopacity="1"
     inkscape:showpageshadow="0"
     inkscape:pageopacity="0"
     inkscape:pagecheckerboard="0"
     inkscape:deskcolor="#505050"
     inkscape:document-units="mm"
     showgrid="false"
     inkscape:zoom="1.4503086"
     inkscape:cx="203.06023"
     inkscape:cy="2.4132794"
     inkscape:window-width="1920"
     inkscape:window-height="1001"
     inkscape:window-x="-9"
     inkscape:window-y="-9"
     inkscape:window-maximized="1"
     inkscape:current-layer="g5704" />
  <defs
     id="defs1629">
    <linearGradient
       inkscape:collect="always"
       xlink:href="#linearGradient4882"
       id="linearGradient4224"
       gradientUnits="userSpaceOnUse"
       x1="-1820.0532"
       y1="-445.48032"
       x2="-1820.0532"
       y2="-333.07706" />
    <linearGradient
       inkscape:collect="always"
       id="linearGradient4882">
      <stop
         style="stop-color:#f44336;stop-opacity:1;"
         offset="0"
         id="stop4878" />
      <stop
         style="stop-color:#fc7a18;stop-opacity:1;"
         offset="0.50423014"
         id="stop5028" />
      <stop
         style="stop-color:#fd7d17;stop-opacity:1;"
         offset="1"
         id="stop4886" />
    </linearGradient>
    <linearGradient
       inkscape:collect="always"
       xlink:href="#linearGradient5229"
       id="linearGradient4226"
       gradientUnits="userSpaceOnUse"
       x1="-1775.4774"
       y1="-408.7905"
       x2="-1775.4774"
       y2="-338.39981"
       gradientTransform="translate(0,-5.486283)" />
    <linearGradient
       inkscape:collect="always"
       id="linearGradient5229">
      <stop
         style="stop-color:#fff176;stop-opacity:1;"
         offset="0"
         id="stop5225" />
      <stop
         style="stop-color:#fff8bd;stop-opacity:0.80784315;"
         offset="0.55329949"
         id="stop5231" />
      <stop
         style="stop-color:#ffffff;stop-opacity:0.22018349;"
         offset="0.99323189"
         id="stop5227" />
    </linearGradient>
  </defs>
  <g
     inkscape:label="Layer 1"
     inkscape:groupmode="layer"
     id="layer1">
    <g
       id="g5704"
       transform="matrix(0.26458333,0,0,0.26458333,-256.72379,603.71674)"
       inkscape:export-filename="logo.svg"
       inkscape:export-xdpi="96"
       inkscape:export-ydpi="96">
      <g
         aria-label="Bonfire"
         id="text487-5-7"
         style="font-size:87.5564px;line-height:1.25;font-family:'Black Brutal';-inkscape-font-specification:'Black Brutal, Normal';letter-spacing:0px;word-spacing:0px;fill:#000000;stroke-width:18;paint-order:stroke markers fill;fill-opacity:1">
        <path
           d="m 1113.7045,-2226.4968 q 0,7.8664 -4.9165,13.0394 -5.6005,5.9426 -19.666,5.9426 -1.0688,0 -3.0781,-0.043 -2.0521,0 -3.0354,0 -15.7756,0 -18.7682,-0.6412 -1.2398,-0.2566 -1.2398,-1.3254 0,-4.5744 0.513,-13.8517 0.5558,-9.2772 0.5558,-13.8944 0,-4.9592 -0.5131,-18.6399 -0.1282,-3.5057 -0.4702,-10.5171 l -0.043,-0.5985 q -0.043,-0.8123 1.3253,-0.9833 1.4109,-0.171 9.9185,-0.171 13.638,0 15.9466,0.086 10.517,0.3848 15.519,3.4202 6.6266,4.0614 6.6266,13.7234 0,2.5224 -1.5391,5.344 -1.1115,2.0094 -2.9071,4.0187 -1.5819,1.7529 -1.5819,1.6246 0,0.2993 1.1116,0.9406 2.9927,1.71 4.7027,5.4295 1.5391,3.3347 1.5391,7.0968 z m -18.3834,-24.0694 q 0,-3.6767 -3.6767,-4.8738 -2.0521,-0.6412 -6.7548,-0.6412 -4.6173,0 -4.6173,0.684 0,0.8123 -0.171,2.4796 -0.1282,1.6246 -0.1282,2.4369 0,4.2752 0.7268,4.7882 0.4702,0.3848 5.4295,0.3848 9.1917,0 9.1917,-5.2585 z m 1.2826,23.8984 q 0,-3.8477 -3.2065,-5.2157 -2.0521,-0.8551 -6.6693,-0.8551 -5.515,0 -5.9853,0.4275 -0.4703,0.3848 -0.4703,5.2158 0,5.0448 0.5558,5.6005 0.5558,0.5131 6.1563,0.5131 4.6173,0 6.4984,-0.7268 3.1209,-1.2398 3.1209,-4.9593 z"
           style="font-family:'Berlin Sans FB Demi';-inkscape-font-specification:'Berlin Sans FB Demi, Normal';fill:#000000;fill-opacity:1"
           id="path1319" />
        <path
           d="m 1159.9623,-2229.0619 q 0,9.7475 -5.9853,15.8183 -5.9425,6.0708 -15.6472,6.0708 -9.4055,0 -15.4763,-5.9853 -6.0708,-5.9853 -6.0708,-15.3908 0,-9.9185 5.8143,-16.0748 5.8143,-6.199 15.7328,-6.199 9.6619,0 15.6472,6.0708 5.9853,6.028 5.9853,15.69 z m -14.0227,0 q 0,-3.3774 -2.0948,-5.9425 -2.0949,-2.6079 -5.4295,-2.6079 -3.3775,0 -5.5578,2.6506 -2.0521,2.4796 -2.0521,5.8998 0,3.4629 2.0521,5.9426 2.1803,2.6506 5.5578,2.6506 3.3346,0 5.515,-2.6506 2.0093,-2.4797 2.0093,-5.9426 z"
           style="font-family:'Berlin Sans FB Demi';-inkscape-font-specification:'Berlin Sans FB Demi, Normal';fill:#000000;fill-opacity:1"
           id="path1321" />
        <path
           d="m 1207.631,-2209.2676 q 0,1.1543 -1.1971,1.3253 -1.197,0.171 -6.2418,0.171 -5.3868,0 -6.6693,-0.2565 -1.2826,-0.2565 -1.2826,-1.7529 0,-2.0093 0.1283,-6.0708 0.1282,-4.0614 0.1282,-6.1135 0,-1.5819 -0.085,-4.7028 -0.085,-3.1636 -0.085,-4.7455 0,-5.857 -5.0875,-5.857 -1.6673,0 -3.8904,1.4536 -2.3942,1.6246 -2.3942,3.2064 v 23.0861 q 0,1.4109 -1.3253,1.5819 -1.4963,0.171 -6.1135,0.171 -5.002,0 -6.4984,-0.2565 -1.3253,-0.2138 -1.3253,-1.4109 0,-3.3346 0.043,-10.0467 0.043,-6.7121 0.043,-10.0895 0,-10.6453 -1.6673,-16.7161 -0.086,-0.3848 -0.086,-0.6413 0,-0.684 0.6413,-0.9405 2.6934,-0.2993 7.1823,-0.9406 6.7976,-1.3253 7.6527,-1.3253 0.4702,0 0.7268,2.9071 0.2565,2.8644 0.7267,2.8644 -0.4702,0 4.5745,-2.9499 5.0875,-2.9926 8.8925,-2.9926 5.4295,0 9.0634,2.5651 4.0615,2.9499 4.0615,8.2084 v 13.638 q 0,2.7789 0.043,8.3366 0.043,5.5151 0.043,8.294 z"
           style="font-family:'Berlin Sans FB Demi';-inkscape-font-specification:'Berlin Sans FB Demi, Normal';fill:#000000;fill-opacity:1"
           id="path1323" />
        <path
           d="m 1241.0632,-2235.603 q 0,1.0261 -1.1116,1.0261 -4.6172,0 -7.2679,-0.2565 0.1283,3.2064 0.2566,8.9352 0.043,2.4368 0.3847,8.4649 0.2993,5.4295 0.2993,8.4649 0,0.8978 -1.1971,1.0261 -1.4535,0.171 -7.2678,0.171 -4.831,0 -6.2846,-0.2565 -1.4536,-0.2565 -1.4536,-1.7529 v -23.5564 q 0,-1.2398 -1.7101,-1.2398 -0.2992,0 -0.9833,0.043 -0.6412,0.043 -0.9405,0.043 -1.1971,0 -1.2398,-0.684 -0.3848,-3.7195 -0.3848,-10.8163 0,-1.5819 1.6246,-1.9239 1.4536,-0.1282 2.9499,-0.2137 -0.2138,-3.4202 -0.2138,-5.3441 0,-7.3533 2.8644,-10.688 5.6861,-6.6266 18.3834,-6.6266 0.8551,0 1.0261,0.513 0.342,1.9239 0.9833,5.6861 0.043,0.342 0.5558,2.3941 0.3847,1.5818 0.3847,2.4369 0,1.026 -3.0354,1.3253 -3.5056,0.3848 -4.3179,1.2826 -1.4108,1.539 -1.4108,6.028 0,1.4108 0.2137,2.6506 1.1971,0 3.7195,-0.086 2.5223,-0.086 3.8049,-0.086 1.2826,0 1.2826,0.9406 0,2.0093 0.043,6.0708 0.043,4.0187 0.043,6.028 z"
           style="font-family:'Berlin Sans FB Demi';-inkscape-font-specification:'Berlin Sans FB Demi, Normal';fill:#000000;fill-opacity:1"
           id="path1325" />
        <path
           d="m 1262.6102,-2259.4159 q 0,7.4389 -8.3794,7.4389 -3.5912,0 -5.9425,-1.8811 -2.5652,-2.0521 -2.5652,-5.5578 0,-3.3347 2.6507,-5.4723 2.4369,-1.9666 5.857,-1.9666 3.3347,0 5.7716,2.0094 2.6078,2.1376 2.6078,5.4295 z m -1.1115,31.7648 q 0,3.1209 0.1282,9.32 0.1283,6.1563 0.1283,9.2345 0,0.8978 -1.0688,1.0688 -1.4536,0.2565 -6.5411,0.2565 -5.1302,0 -6.5838,-0.2565 -0.9406,-0.171 -1.1543,-0.5558 -0.086,-0.171 -0.086,-1.2826 0,-2.9499 0.1282,-8.8497 0.1283,-5.9425 0.1283,-8.9352 0,-12.1416 -0.9406,-19.3239 -0.085,-0.6841 -0.085,-0.8978 0,-0.8551 1.1543,-0.8551 1.1971,0 3.634,0.2565 2.4796,0.2566 3.7194,0.2566 1.2398,0 3.7195,-0.2138 2.4796,-0.2138 3.7194,-0.2138 1.026,0 1.026,0.8551 0,0.171 -0.085,0.8123 -0.9405,8.3366 -0.9405,19.3239 z"
           style="font-family:'Berlin Sans FB Demi';-inkscape-font-specification:'Berlin Sans FB Demi, Normal';fill:#000000;fill-opacity:1"
           id="path1327" />
        <path
           d="m 1298.0945,-2234.6624 q 0,1.6673 -1.8383,1.6673 -0.8123,0 -2.3941,-0.085 -1.5391,-0.1282 -2.3087,-0.1282 -3.5484,0 -4.8309,1.1115 -1.2826,1.1116 -1.2826,4.489 0,1.8383 0.043,5.6005 0.085,3.7195 0.085,5.5578 0,1.2398 0.1711,3.7194 0.171,2.4369 0.171,3.634 0,1.026 -1.4109,1.1543 -2.0521,0.171 -6.2845,0.171 -4.0615,0 -6.4983,-0.2565 -1.4109,-0.171 -1.4109,-1.4109 0,-3.4201 0.043,-10.2177 0.043,-6.8404 0.043,-10.2605 0,-10.0468 -1.8383,-16.5451 -0.085,-0.3848 -0.085,-0.6413 0,-0.6413 0.6413,-0.855 2.3513,-0.2565 6.8831,-0.9406 6.7548,-1.3253 6.9686,-1.3253 0.7695,0 0.9833,2.6934 0.2137,2.6934 0.7695,2.6934 -0.5985,0 3.5057,-2.2231 4.1042,-2.2659 7.9091,-2.2659 2.3941,0 2.3941,1.026 0,1.2399 -0.2565,3.5057 -0.2565,2.4369 -0.2992,3.5057 0,1.2398 0.043,3.2919 0.085,2.5224 0.085,3.3347 z"
           style="font-family:'Berlin Sans FB Demi';-inkscape-font-specification:'Berlin Sans FB Demi, Normal';fill:#000000;fill-opacity:1"
           id="path1329" />
        <path
           d="m 1342.2575,-2231.2422 q 0,4.3179 -2.7789,4.9164 -0.4703,0.086 -8.8497,0.9406 -5.0448,0.5558 -15.0488,1.3253 0.5986,2.7789 3.634,4.2325 2.4796,1.197 5.6433,1.197 3.8049,0 7.6526,-2.0521 1.6246,-1.026 3.2492,-2.0521 0.8978,0.4276 2.9926,4.3607 2.1376,3.9332 2.1376,5.002 0,0.2993 -0.6413,0.9833 -5.2157,5.6006 -16.203,5.6006 -10.175,0 -16.4169,-5.9426 -6.4128,-6.028 -6.4128,-16.1175 0,-9.833 5.7288,-16.1176 5.8998,-6.4983 15.6473,-6.4983 8.2084,0 13.9372,5.9853 5.7288,5.9853 5.7288,14.2365 z m -14.9633,-2.6079 q 0,-2.6507 -1.8811,-4.66 -1.8811,-2.0094 -4.4889,-2.0094 -2.6934,0 -4.4463,2.2659 -1.6245,2.0949 -1.6245,4.9165 0,1.1543 1.197,1.1543 3.1637,0 9.833,-0.9833 1.4108,-0.2138 1.4108,-0.684 z"
           style="font-family:'Berlin Sans FB Demi';-inkscape-font-specification:'Berlin Sans FB Demi, Normal';fill:#000000;fill-opacity:1"
           id="path1331" />
      </g>
      <g
         id="g5032-4-4-0-1"
         transform="matrix(0.35175205,0,0,0.36454554,1564.1866,-2060.4185)"
         style="stroke-width:2.79258">
        <g
           id="g5235-8-4-5"
           style="stroke-width:2.79258"
           transform="translate(131.67086,-49.298698)">
          <g
             id="g4234">
            <path
               style="fill:url(#linearGradient4224);fill-opacity:1;stroke:none;stroke-width:50.2665;stroke-dasharray:none;stroke-opacity:1;paint-order:stroke markers fill"
               d="m -1779.5663,-450.18012 c -6.5731,-6.796 -6.1017,-19.1251 -5.9961,-28 0.039,-3.2818 2.3815,-10.6227 -0.747,-12.9529 -5.6967,-4.2433 -15.5444,11.3345 -18.0517,14.9529 -12.6979,18.326 -17.7801,42.959 -14.9158,65 4.8716,37.488 32.0315,67.258 68.7106,75.765 46.911,10.88 104.64,-16.857 106.961,-69.765 0.62,-14.141 -1.023,-27.35 -7.743,-40 -1.874,-3.528 -4.999,-10.228 -9.293,-11.248 -4.22,-1.003 -6.205,4.69 -8.315,7.205 -5.276,6.287 -14.52,8.068 -19.193,-0.001 -5.475,-9.455 0.399,-21.9624 1.414,-31.956 1.82,-17.9137 0.01,-35.6567 -10.351,-51 -9.486,-14.048 -25.124,-21.5727 -41.48,-24.24614 -3.566,-0.58281 -14.9386,-3.65346 -16.2492,1.39504 -1.1925,4.5933 6.5142,11.7822 8.4642,15.8511 4.279,8.9315 4.002,19.029 -0.116,28 -10.3555,22.5554 -33.0806,33.2464 -33.099,61"
               id="path1427-4-2-0-1-8-7"
               sodipodi:nodetypes="csscsscsccccsssccc" />
            <path
               id="path1427-1-2-7-9-4"
               style="fill:url(#linearGradient4226);fill-opacity:1;stroke:none;stroke-width:2.79258"
               d="m -1714.5658,-484.66746 c -19.959,8.43749 -36.9823,35.44202 -37.9609,57 -0.3333,7.34099 0.064,14.054 2.5469,21 1.013,2.83299 3.0335,6.92106 0.7695,9.66406 -5.9375,7.19499 -14.0101,-10.71907 -15.3555,-14.66406 -5.8204,1.82 -7.3985,8.609 -8.9609,14 -3.9895,13.76598 -2.4236,34.00929 10.0019,43.36328 25.0509,18.85598 76.287,12.91168 77.92,-24.36328 1.088,-24.85898 -20.4245,-37.41002 -29.5215,-58 -7.802,-17.65899 -0.3355,-30.49802 0.5605,-48 z" />
          </g>
        </g>
      </g>
      <g
         id="g5032-4-4-0-1-0"
         transform="matrix(0.35175205,0,0,0.36454554,1769.6542,-1802.148)"
         style="stroke-width:2.79258" />
    </g>
  </g>
</svg>
